<?xml version="1.0" standalone="no"?>
<!DOCTYPE svg PUBLIC "-//W3C//DTD SVG 20010904//EN"
 "http://www.w3.org/TR/2001/REC-SVG-20010904/DTD/svg10.dtd">
<svg version="1.0" xmlns="http://www.w3.org/2000/svg"
 width="1088.000000pt" height="1088.000000pt" viewBox="0 0 1088.000000 1088.000000"
 preserveAspectRatio="xMidYMid meet">
<metadata>
Created by potrace 1.11, written by Peter Selinger 2001-2013
</metadata>
<g transform="translate(0.000000,1088.000000) scale(0.100000,-0.100000)"
fill="#000000" stroke="none">
<path d="M5390 10877 c-3 -3 -43 -8 -89 -12 -47 -4 -93 -8 -104 -11 -10 -2
-53 -6 -94 -9 -41 -3 -78 -7 -82 -9 -3 -2 -49 -7 -101 -11 -52 -4 -97 -8 -100
-10 -3 -2 -43 -6 -90 -10 -47 -3 -98 -8 -115 -10 -16 -3 -55 -7 -85 -10 -30
-3 -73 -8 -95 -10 -83 -10 -151 -17 -180 -20 -81 -7 -181 -17 -197 -20 -10 -2
-54 -7 -97 -10 -44 -3 -89 -8 -102 -10 -12 -2 -49 -7 -83 -10 -33 -3 -79 -7
-101 -10 -22 -2 -68 -7 -102 -10 -34 -3 -72 -8 -85 -10 -13 -2 -52 -6 -88 -9
-36 -4 -90 -9 -120 -13 -30 -3 -73 -7 -95 -8 -22 -2 -40 -4 -40 -5 0 -1 -18
-3 -40 -5 -56 -5 -155 -15 -190 -20 -16 -3 -59 -7 -95 -10 -76 -7 -115 -11
-190 -20 -30 -3 -74 -8 -97 -10 -69 -6 -148 -17 -152 -21 -2 -2 -11 1 -21 6
-10 5 -20 6 -24 3 -8 -8 -25 -12 -96 -18 -30 -3 -75 -7 -100 -10 -49 -6 -106
-12 -185 -20 -27 -3 -72 -8 -100 -11 -63 -7 -127 -14 -185 -20 -25 -2 -61 -6
-80 -8 -19 -3 -71 -7 -115 -11 -44 -3 -87 -8 -95 -10 -8 -2 -49 -7 -90 -11
-41 -3 -84 -8 -95 -9 -11 -2 -28 -4 -37 -4 -17 -1 -18 -196 -18 -3941 0 -2394
4 -3940 9 -3940 5 0 46 -22 90 -50 44 -27 85 -50 91 -50 5 0 10 -4 10 -8 0 -4
22 -19 50 -33 27 -13 50 -27 50 -31 0 -5 5 -8 10 -8 6 0 27 -11 48 -24 94 -60
564 -336 573 -336 5 0 9 -4 9 -10 0 -5 4 -10 9 -10 8 0 365 -210 451 -265 40
-26 218 -130 270 -158 19 -11 37 -22 40 -26 3 -3 25 -17 50 -30 25 -14 47 -27
50 -31 5 -6 33 -22 97 -54 13 -6 23 -14 23 -18 0 -5 4 -8 9 -8 5 0 112 -62
237 -137 126 -75 238 -141 249 -148 21 -11 117 -68 150 -88 11 -7 43 -27 72
-44 30 -18 57 -33 62 -33 5 0 11 -3 13 -7 4 -10 57 -42 81 -50 9 -3 17 -9 17
-14 0 -5 4 -9 10 -9 8 0 237 -134 340 -198 14 -9 26 -14 26 -11 1 2 10 -3 20
-12 11 -9 48 -33 84 -54 36 -21 68 -44 72 -49 4 -6 8 -8 8 -4 0 4 36 -15 81
-42 44 -28 83 -50 85 -50 3 0 25 -13 49 -30 24 -16 46 -30 48 -30 6 0 269
-157 284 -170 7 -5 15 -10 18 -10 3 0 34 -17 68 -38 68 -41 63 -38 195 -116
l93 -55 50 29 c27 17 54 30 59 30 4 0 10 3 12 8 4 9 177 112 189 112 5 0 9 5
9 10 0 6 5 10 10 10 6 0 39 17 73 39 76 47 504 301 533 317 12 6 78 46 147 88
69 42 131 76 137 76 5 0 10 5 10 10 0 6 4 10 8 10 5 0 95 52 201 115 106 63
194 115 196 115 3 0 24 13 47 29 39 26 510 307 568 339 14 7 37 21 52 30 22
14 234 141 296 177 114 67 342 203 437 260 143 86 588 351 630 375 17 9 122
72 233 139 112 66 208 121 213 121 5 0 9 5 9 10 0 6 4 10 10 10 5 0 33 15 62
33 29 18 65 39 81 46 l27 14 0 3939 0 3938 -22 1 c-13 0 -32 2 -43 5 -11 2
-54 6 -95 9 -41 3 -82 7 -90 10 -8 2 -46 7 -85 10 -38 3 -88 8 -110 11 -48 6
-123 13 -186 19 -25 2 -63 6 -85 9 -21 3 -66 8 -99 11 -33 3 -73 8 -90 10 -16
3 -57 7 -90 10 -33 2 -80 7 -105 9 -25 3 -72 8 -105 12 -33 3 -73 7 -90 9 -70
8 -153 16 -200 20 -27 2 -50 5 -50 5 0 1 -20 3 -45 6 -25 2 -61 6 -80 8 -19 2
-53 6 -75 7 -22 1 -44 4 -48 7 -4 2 -38 6 -75 8 -37 2 -85 7 -107 9 -22 3 -62
7 -90 10 -27 2 -68 6 -90 9 -82 10 -181 21 -280 30 -33 4 -78 8 -100 11 -22 3
-69 7 -105 10 -36 3 -81 8 -100 11 -19 3 -55 7 -80 9 -25 3 -67 7 -95 10 -27
3 -72 8 -100 11 -27 3 -68 7 -90 9 -22 1 -67 6 -100 9 -102 11 -138 15 -195
21 -30 3 -75 8 -100 11 -25 3 -66 6 -92 7 -27 1 -48 4 -48 7 0 3 -17 5 -38 6
-20 1 -64 4 -97 8 -33 4 -78 9 -100 11 -22 2 -60 6 -85 9 -25 3 -72 8 -105 11
-33 4 -74 8 -90 10 -83 10 -191 16 -195 12z m240 -632 c25 -3 59 -7 75 -10 17
-3 57 -7 90 -9 33 -3 60 -6 60 -6 0 -1 18 -3 40 -5 22 -2 65 -6 95 -10 75 -9
104 -12 180 -19 36 -4 85 -9 110 -12 25 -3 65 -7 90 -9 25 -2 63 -6 85 -9 22
-4 63 -8 90 -11 179 -16 240 -22 240 -25 0 -1 23 -3 50 -4 28 -2 73 -6 100 -9
110 -14 152 -19 195 -22 50 -4 122 -12 190 -20 48 -5 97 -11 195 -21 33 -4 79
-7 102 -8 24 0 43 -3 43 -6 0 -3 12 -5 28 -5 15 1 37 -2 50 -7 16 -6 21 -5 16
4 -4 7 -3 8 4 4 12 -7 28 -9 142 -21 36 -4 72 -8 81 -10 8 -2 51 -6 95 -10 43
-3 90 -8 104 -10 14 -3 50 -7 80 -10 30 -2 80 -7 110 -10 30 -3 75 -8 100 -10
43 -4 69 -7 190 -20 51 -6 87 -10 185 -19 22 -2 60 -6 85 -10 44 -6 136 -16
175 -19 20 -2 20 -9 21 -1434 l0 -1431 -45 25 c-25 13 -58 32 -73 41 -109 68
-239 142 -248 142 -5 0 -10 4 -10 10 0 5 -11 12 -25 16 -14 3 -25 10 -25 15 0
5 -5 9 -11 9 -6 0 -31 14 -56 30 -24 17 -46 30 -48 30 -3 0 -73 41 -156 90
-82 50 -152 90 -155 90 -3 0 -25 14 -49 30 -24 17 -47 30 -50 30 -4 0 -27 14
-52 30 -24 17 -46 30 -47 30 -6 0 -290 169 -303 180 -7 5 -15 10 -18 10 -3 0
-63 34 -133 76 -70 42 -134 80 -142 85 -14 8 -207 121 -408 239 -51 30 -101
60 -110 65 -10 6 -33 19 -52 31 -196 118 -329 194 -338 194 -7 0 -12 4 -12 8
0 5 -15 16 -32 25 -18 9 -53 29 -78 43 -25 15 -54 32 -65 38 -70 39 -171 102
-177 111 -4 5 -8 6 -8 1 0 -5 -8 -2 -17 6 -18 14 -61 41 -138 84 -22 12 -101
58 -175 103 -74 44 -153 90 -175 102 -22 12 -43 27 -47 33 -4 6 -8 7 -8 2 0
-5 -8 -2 -17 6 -10 8 -38 26 -63 39 -25 13 -47 27 -50 30 -3 3 -19 14 -37 23
-18 9 -30 22 -28 29 4 8 -5 12 -25 13 -21 1 -30 -4 -30 -15 0 -14 -70 -63 -86
-60 -4 0 -10 -3 -13 -8 -3 -4 -62 -42 -131 -83 -69 -40 -164 -98 -212 -127
-48 -29 -92 -53 -98 -53 -5 0 -10 -4 -10 -9 0 -5 -8 -11 -17 -15 -10 -3 -34
-16 -53 -28 -19 -12 -51 -31 -71 -42 -20 -12 -85 -50 -145 -86 -60 -36 -116
-69 -126 -75 -9 -5 -65 -39 -125 -75 -59 -36 -112 -67 -118 -70 -33 -16 -111
-65 -116 -73 -3 -5 -10 -9 -15 -9 -5 -1 -25 -11 -44 -23 -47 -29 -116 -70
-165 -96 -22 -12 -42 -25 -45 -29 -3 -3 -12 -9 -20 -13 -8 -4 -37 -20 -65 -37
-27 -17 -58 -33 -67 -37 -10 -3 -18 -9 -18 -13 0 -4 -8 -11 -17 -14 -10 -3
-27 -12 -38 -19 -11 -6 -108 -64 -215 -128 -107 -64 -209 -125 -226 -135 -30
-18 -132 -79 -197 -118 -86 -50 -324 -192 -338 -201 -9 -5 -34 -20 -55 -32
-22 -13 -57 -34 -79 -48 -22 -14 -47 -28 -55 -31 -8 -4 -22 -13 -30 -19 -8 -7
-31 -21 -50 -32 -19 -10 -145 -84 -280 -164 -239 -142 -285 -169 -292 -169 -2
0 -4 641 -4 1425 0 1273 2 1425 16 1430 8 2 42 7 75 10 33 3 74 8 90 10 17 2
62 7 100 10 63 6 88 9 175 19 14 2 61 6 105 10 44 4 94 10 110 12 17 3 55 7
85 9 30 2 55 4 55 5 0 2 40 6 135 14 41 4 86 9 100 11 29 4 137 16 195 21 22
2 58 5 81 8 23 2 70 7 105 11 35 3 82 8 104 11 68 8 128 14 181 19 50 4 117
12 181 20 18 3 66 7 105 10 40 3 84 7 98 10 14 2 54 7 90 10 36 4 81 8 100 11
19 2 62 6 95 9 33 3 76 8 95 10 51 7 137 16 195 20 28 2 50 5 50 6 0 2 38 6
120 13 39 3 84 8 100 10 17 2 59 7 95 11 90 9 136 13 200 20 30 3 80 8 110 11
30 3 69 7 85 9 17 2 61 6 100 10 38 4 72 8 74 11 4 4 180 -3 271 -11z m18
-1665 c122 -71 225 -130 229 -130 3 0 14 -6 22 -14 9 -7 37 -25 62 -39 74 -40
94 -52 99 -57 3 -3 19 -12 35 -20 17 -8 32 -17 35 -21 5 -5 124 -74 160 -92 8
-4 33 -18 55 -32 22 -14 58 -35 80 -46 22 -12 42 -24 45 -28 3 -3 18 -13 35
-21 16 -8 59 -32 94 -53 35 -22 78 -47 96 -57 18 -10 43 -24 56 -32 13 -7 26
-15 29 -18 3 -3 19 -12 35 -21 17 -9 113 -65 215 -124 176 -102 216 -125 271
-157 13 -7 31 -18 39 -24 8 -6 35 -23 60 -36 63 -35 92 -52 288 -167 95 -55
177 -101 183 -101 5 0 9 -4 9 -9 0 -5 15 -14 33 -21 17 -8 39 -19 47 -25 8 -7
35 -24 60 -38 25 -13 86 -49 135 -78 50 -29 114 -66 144 -83 29 -17 70 -41 90
-53 20 -13 44 -25 54 -29 9 -3 17 -10 17 -15 0 -5 6 -9 14 -9 7 0 25 -9 40
-21 14 -11 26 -17 26 -14 0 4 7 1 16 -6 18 -15 28 -21 100 -62 51 -29 69 -39
172 -100 35 -20 67 -37 73 -37 5 0 9 -4 9 -9 0 -5 8 -11 18 -14 9 -4 35 -17
57 -31 22 -14 55 -33 72 -42 18 -9 31 -20 28 -24 -4 -6 -153 -97 -240 -146
-84 -47 -102 -58 -116 -70 -8 -8 -18 -14 -22 -14 -3 0 -50 -26 -104 -59 -54
-32 -114 -68 -133 -79 -117 -67 -236 -137 -240 -142 -3 -3 -21 -13 -40 -23
-62 -33 -95 -52 -100 -58 -9 -10 -321 -189 -330 -189 -4 0 -10 -4 -12 -8 -1
-4 -20 -18 -41 -30 l-39 -22 -56 32 c-32 18 -167 98 -302 179 -135 80 -258
153 -275 163 -16 9 -46 27 -66 39 -20 12 -78 46 -130 76 -52 30 -96 57 -99 60
-9 10 -64 42 -82 48 -10 3 -18 9 -18 14 0 5 -5 9 -11 9 -6 0 -62 31 -125 70
-63 38 -119 70 -124 70 -6 0 -10 3 -10 8 0 4 -13 13 -30 20 -16 7 -45 24 -64
37 -20 13 -55 35 -79 48 -83 47 -92 52 -97 58 -3 3 -12 9 -20 12 -8 4 -28 16
-45 27 -16 11 -40 24 -53 30 -12 5 -35 18 -50 29 -42 30 -474 285 -504 298
-27 12 -33 8 -29 -19 1 -8 1 -53 1 -83 -2 -101 -2 -278 -1 -312 1 -16 27 -36
114 -87 61 -36 117 -69 122 -73 23 -17 71 -44 88 -50 9 -3 17 -9 17 -14 0 -5
4 -9 9 -9 5 0 42 -20 83 -45 40 -25 92 -55 116 -67 23 -12 42 -26 42 -30 0 -4
5 -8 11 -8 6 0 67 -34 135 -75 68 -41 128 -75 134 -75 5 0 10 -4 10 -10 0 -5
4 -10 9 -10 7 0 126 -69 221 -129 14 -8 27 -16 30 -16 3 0 24 -13 47 -28 24
-15 47 -27 53 -27 5 0 10 -4 10 -10 0 -5 7 -10 15 -10 8 0 15 -4 15 -8 0 -4
12 -13 28 -19 15 -7 34 -17 42 -23 42 -29 252 -150 259 -150 5 0 11 -3 13 -7
4 -10 107 -73 119 -73 5 0 9 -4 9 -10 0 -5 3 -9 8 -8 4 1 25 -9 47 -23 22 -14
49 -30 60 -36 18 -10 17 -13 -18 -29 -20 -10 -37 -21 -37 -26 0 -4 -5 -8 -10
-8 -6 0 -27 -10 -48 -23 -20 -13 -62 -38 -93 -55 l-55 -31 -53 34 c-29 19 -54
35 -56 35 -2 0 -59 33 -127 73 -419 250 -557 332 -584 347 -69 39 -79 46 -98
62 -10 10 -22 15 -26 13 -4 -3 -13 2 -20 10 -7 8 -16 15 -21 15 -4 0 -27 13
-51 29 -24 15 -63 39 -88 52 -25 13 -47 27 -50 30 -4 4 -104 64 -208 124 -139
80 -190 111 -205 124 -18 15 -19 13 -15 -31 3 -26 1 -52 -2 -59 -4 -6 -4 -26
0 -45 4 -19 5 -34 1 -34 -5 0 -6 -185 -2 -261 1 -11 80 -64 214 -143 116 -70
219 -131 227 -136 8 -5 69 -41 135 -79 66 -39 125 -74 131 -78 12 -10 42 -27
103 -60 25 -14 53 -31 61 -37 8 -6 26 -17 39 -24 13 -8 38 -22 55 -31 17 -10
61 -37 99 -59 37 -23 72 -42 77 -42 6 0 10 -3 10 -8 0 -4 14 -13 30 -21 17 -7
30 -17 28 -22 -7 -20 -241 -169 -252 -160 -6 5 -27 18 -46 28 -19 11 -120 71
-225 133 -104 62 -206 121 -225 132 -19 11 -84 50 -145 86 -60 36 -130 76
-155 90 -25 13 -52 31 -61 38 -8 8 -20 14 -26 14 -6 0 -16 6 -22 14 -6 8 -20
16 -30 19 -17 4 -19 -2 -19 -47 -1 -28 -2 -126 -3 -218 -2 -110 1 -171 9 -180
6 -7 32 -24 59 -38 26 -14 50 -27 53 -30 3 -3 16 -11 30 -19 14 -8 71 -42 128
-75 57 -34 123 -73 148 -87 25 -14 54 -32 65 -39 10 -8 34 -21 51 -30 17 -8
33 -19 34 -25 2 -5 -44 -37 -101 -70 -58 -33 -114 -67 -125 -76 -11 -9 -34
-22 -50 -29 -17 -7 -30 -16 -30 -19 0 -4 -16 -13 -35 -21 -19 -8 -35 -17 -35
-22 0 -4 -4 -8 -9 -8 -5 0 -46 -22 -90 -50 -51 -32 -86 -47 -97 -43 -9 3 -79
44 -156 90 -77 45 -144 83 -149 83 -5 0 -9 5 -9 10 0 6 -5 10 -11 10 -6 0 -23
8 -37 19 -15 10 -43 27 -62 38 -19 10 -116 67 -215 127 -99 59 -187 112 -195
116 -8 5 -52 32 -98 60 -46 27 -85 50 -88 50 -2 0 -27 15 -56 33 -29 19 -60
37 -68 40 -19 9 -46 25 -87 55 -18 13 -33 20 -33 16 0 -4 -8 0 -17 8 -25 22
-241 148 -253 148 -6 0 -10 5 -10 10 0 6 -5 10 -12 10 -6 0 -19 6 -27 14 -9 7
-36 25 -61 38 -86 48 -125 72 -142 86 -10 8 -18 12 -18 8 0 -4 -14 4 -31 18
-17 14 -37 26 -45 26 -8 0 -14 5 -14 10 0 6 -5 10 -10 10 -6 0 -36 16 -66 35
-30 19 -57 35 -60 35 -3 0 -29 15 -57 33 -42 28 -273 165 -424 253 -143 84
-269 159 -273 163 -8 9 -81 50 -118 67 -17 8 -32 19 -32 24 0 6 -6 10 -13 10
-7 0 -36 16 -66 35 -29 19 -55 35 -58 35 -3 0 -34 18 -69 40 -35 22 -68 40
-74 40 -5 0 -10 4 -10 9 0 5 -11 12 -25 15 -14 4 -25 11 -25 16 0 6 -4 10 -10
10 -5 0 -33 15 -62 33 -87 53 -112 67 -130 73 -10 4 -18 10 -18 15 0 5 -7 9
-15 9 -8 0 -15 5 -15 10 0 6 -6 10 -13 10 -7 0 -28 11 -46 24 l-32 24 30 13
c17 8 31 18 31 22 0 5 4 6 9 2 5 -3 12 -1 16 4 3 6 45 33 93 61 48 28 116 69
151 91 34 21 64 39 66 39 1 0 80 47 175 105 95 58 175 105 177 105 2 0 23 13
46 28 23 16 49 32 57 35 22 10 393 235 407 247 7 5 14 10 17 10 2 0 45 25 94
55 50 30 95 55 100 55 6 0 12 4 14 8 2 5 59 42 128 83 69 41 127 77 128 81 2
5 8 8 14 8 6 0 41 19 77 42 36 23 75 47 86 52 40 22 220 131 225 136 3 3 16
11 30 18 14 7 41 22 61 35 20 12 99 59 175 105 76 46 168 101 204 123 36 21
72 43 80 48 8 5 135 81 282 170 147 89 272 161 278 161 5 0 10 4 10 8 0 5 10
14 23 20 12 6 45 25 72 42 28 17 59 35 70 40 11 6 58 35 105 64 47 30 90 54
96 55 5 1 110 -57 232 -129z m3478 -4071 c1 -900 -3 -1592 -8 -1601 -5 -10
-13 -18 -18 -18 -5 0 -41 -20 -80 -45 -39 -25 -72 -45 -75 -45 -2 0 -29 -16
-59 -35 -30 -19 -58 -35 -61 -35 -3 0 -29 -15 -58 -34 -57 -37 -455 -274 -527
-314 -25 -13 -52 -30 -60 -36 -8 -7 -36 -23 -62 -37 -27 -13 -48 -27 -48 -31
0 -5 -4 -8 -10 -8 -5 0 -25 -10 -44 -22 -73 -48 -118 -73 -123 -70 -3 2 -9 0
-12 -5 -8 -12 -479 -293 -492 -293 -5 0 -9 -4 -9 -10 0 -5 -7 -10 -15 -10 -8
0 -15 -3 -15 -8 0 -4 -17 -15 -37 -25 -21 -9 -67 -35 -102 -57 -34 -22 -64
-40 -66 -40 -2 0 -32 -18 -66 -39 -55 -34 -332 -199 -448 -267 -20 -12 -79
-47 -131 -79 -52 -32 -111 -66 -130 -77 -19 -10 -66 -38 -105 -63 -38 -24 -76
-44 -82 -45 -7 0 -13 -4 -13 -10 0 -5 -4 -10 -8 -10 -5 0 -96 -52 -203 -116
-107 -64 -212 -126 -234 -138 -22 -12 -42 -24 -45 -27 -3 -3 -56 -36 -119 -73
-77 -45 -120 -65 -133 -60 -10 3 -69 36 -131 74 -62 37 -213 127 -337 200
-124 73 -241 143 -260 155 -37 24 -471 282 -505 301 -11 6 -38 22 -60 35 -22
14 -47 29 -55 32 -24 12 -244 145 -257 156 -7 6 -14 11 -17 11 -3 0 -108 61
-233 136 -125 75 -246 146 -268 159 -35 20 -252 149 -295 175 -120 73 -278
166 -288 168 -6 2 -12 8 -12 13 0 5 -4 9 -9 9 -5 0 -52 26 -105 57 -53 32
-104 63 -114 68 -69 40 -273 161 -302 180 -43 28 -287 172 -339 201 -21 11
-49 28 -62 38 l-24 16 0 1570 c-1 864 0 1570 2 1570 1 0 43 -25 93 -55 50 -30
93 -55 96 -55 3 0 20 -11 38 -25 18 -14 36 -22 39 -18 4 3 7 2 7 -4 0 -5 18
-18 40 -28 22 -10 40 -21 40 -25 0 -4 8 -10 18 -13 9 -4 38 -19 63 -34 25 -15
86 -52 135 -81 49 -29 96 -57 104 -63 25 -15 303 -180 335 -199 17 -9 89 -52
160 -95 72 -43 144 -86 160 -95 17 -10 77 -46 135 -80 58 -34 119 -70 135 -80
17 -9 117 -70 224 -134 107 -64 196 -116 198 -116 2 0 23 -12 46 -27 70 -46
81 -53 107 -66 14 -7 44 -25 67 -40 24 -15 45 -27 48 -27 4 0 26 -13 50 -30
24 -16 47 -30 50 -30 4 0 19 -8 33 -19 15 -10 43 -28 62 -38 19 -11 104 -61
188 -112 83 -50 156 -91 161 -91 5 0 11 -3 13 -8 4 -9 176 -112 187 -112 4 0
16 -9 26 -20 9 -10 20 -18 24 -17 3 1 40 -19 81 -44 41 -25 109 -65 150 -89
41 -25 77 -47 80 -50 3 -4 12 -9 22 -13 9 -3 53 -28 98 -56 45 -28 85 -51 89
-51 4 0 15 -8 23 -17 11 -14 15 -47 17 -136 0 -64 2 -121 2 -125 1 -4 1 -25 0
-46 -1 -36 -2 -38 -18 -24 -25 20 -142 88 -154 88 -5 0 -9 5 -9 10 0 6 -4 10
-9 10 -5 0 -73 38 -151 85 -78 48 -156 94 -173 103 -18 10 -57 33 -87 52 -30
19 -57 35 -60 35 -3 1 -32 18 -65 38 -70 44 -166 101 -215 129 -19 11 -39 24
-45 28 -5 4 -32 20 -60 36 -27 15 -68 38 -90 52 -22 14 -41 24 -41 21 -1 -2
-10 3 -20 12 -11 9 -93 60 -184 113 -91 53 -172 101 -180 106 -8 5 -75 45
-148 89 -74 45 -138 81 -143 81 -5 0 -9 5 -9 10 0 6 -5 10 -11 10 -6 0 -31 14
-56 30 -24 17 -46 30 -48 30 -1 0 -116 68 -255 150 -138 82 -256 150 -261 150
-5 0 -9 5 -9 10 0 6 -8 10 -17 10 -17 0 -18 -17 -18 -222 l0 -221 190 -115
c105 -63 204 -122 220 -132 41 -23 164 -98 195 -118 14 -9 27 -17 30 -17 5 0
16 -7 88 -52 15 -10 36 -23 47 -29 11 -6 119 -71 240 -144 121 -73 234 -141
250 -150 17 -10 113 -68 214 -129 101 -61 185 -111 187 -111 2 0 30 -17 61
-37 32 -21 63 -40 68 -43 37 -18 511 -306 513 -312 2 -5 8 -6 13 -2 5 3 9 0 9
-5 0 -6 4 -11 9 -11 5 0 38 -18 72 -40 35 -22 75 -46 89 -52 48 -24 50 -28 52
-196 2 -88 0 -164 -5 -168 -4 -4 -15 0 -25 9 -10 10 -24 17 -30 17 -7 0 -12 5
-12 10 0 6 -4 10 -10 10 -8 0 -66 33 -160 90 -107 65 -277 166 -285 169 -5 2
-29 17 -52 32 -23 16 -44 29 -47 29 -3 0 -64 36 -137 80 -72 44 -133 80 -135
80 -2 0 -43 24 -91 54 -49 29 -182 109 -298 178 -595 353 -712 422 -729 437
-10 9 -19 14 -20 12 0 -3 -12 2 -26 11 -209 127 -471 280 -475 276 -2 -2 -5
-101 -7 -221 -3 -185 -1 -219 12 -228 60 -40 363 -219 370 -219 4 0 10 -4 12
-8 1 -4 26 -21 53 -37 28 -15 181 -107 340 -203 160 -96 305 -184 324 -194 19
-11 50 -30 70 -44 20 -13 41 -24 47 -24 7 0 14 -3 16 -8 2 -6 381 -237 453
-277 11 -6 39 -23 62 -38 24 -15 45 -27 48 -27 3 0 11 -5 18 -10 22 -19 578
-350 588 -350 5 0 9 -4 9 -8 0 -5 15 -16 33 -25 17 -8 50 -27 73 -41 l41 -25
49 26 c27 14 51 30 52 34 2 5 8 9 14 9 6 0 39 18 74 40 35 22 68 40 74 40 5 0
10 4 10 8 0 5 18 17 40 27 22 10 40 22 40 27 0 4 4 8 10 8 5 0 123 68 260 150
138 83 255 150 260 150 4 0 10 3 12 8 4 10 175 112 187 112 5 0 11 3 13 8 4 9
126 82 139 82 5 0 9 4 9 9 0 5 10 13 22 17 12 3 28 13 36 20 7 8 20 14 28 14
8 0 14 5 14 10 0 6 6 10 14 10 8 0 16 3 18 8 2 4 20 16 40 27 21 11 165 96
320 190 156 93 291 174 300 180 10 5 58 35 108 65 51 30 106 63 123 73 18 10
46 26 62 37 17 11 41 25 55 30 13 6 27 15 30 19 3 4 46 31 96 60 l92 52 0 57
c0 31 1 62 2 67 1 6 2 15 1 20 -3 14 -3 118 -1 130 1 6 1 12 0 15 -6 16 -4 90
3 90 4 0 5 5 1 11 -10 17 -11 322 -1 337 6 8 5 12 -3 12 -10 0 -10 3 0 15 7 8
8 15 3 15 -10 0 -9 101 1 118 4 7 4 12 -1 12 -6 0 -10 659 -4 741 1 14 88 79
106 79 5 0 23 11 41 25 18 14 35 25 39 25 3 0 22 11 43 24 98 62 564 336 572
336 6 0 10 4 10 8 0 5 18 17 40 27 22 10 40 22 40 27 0 4 4 8 10 8 5 0 39 18
75 40 36 22 70 40 75 40 6 0 10 5 10 11 0 6 6 9 13 7 9 -4 12 -331 13 -1589z"/>
</g>
</svg>
